<svg xmlns="http://www.w3.org/2000/svg" width="850.153" height="156.687" viewBox="0 0 637.615 117.516" version="1.1"><defs><clipPath id="a"><path d="m 0,155 h 270 v 41.87109 H 0 Z m 0,0"/></clipPath><clipPath id="b"><path d="m 274,156 h 160.75 v 40 H 274 Z m 0,0"/></clipPath></defs><path d="M 637.61507,58.855469 578.95882,0 l -29.4336,29.429687 29.4336,29.425782 -29.4336,29.421875 29.4336,29.238286 z M 549.52522,29.429687 520.29476,58.855469 549.52522,88.277344 520.29476,117.51563 461.44319,58.855469 520.29476,0 549.52522,29.429687" fill="#eb1e26" fill-opacity="1" fill-rule="evenodd" stroke="none"/><g clip-path="url(#a)" transform="translate(0,-116.69889)" clip-rule="nonzero"><path d="m 196.49609,196.87109 v -8.92578 c 3.03516,0 5.3086,-1.14062 7.40235,-3.22656 1.89453,-2.28125 2.84375,-4.9375 2.84375,-8.35156 0,-3.22656 -0.94922,-5.88281 -2.84375,-8.16406 -2.09375,-2.27344 -4.5586,-3.23047 -7.40235,-3.23047 v -9.10938 c 2.84375,0 5.5,0.57031 7.97266,1.51563 2.65234,1.14062 4.92969,2.66406 6.83203,4.55468 2.08594,1.90625 3.41406,3.9961 4.55469,6.65235 0.95312,2.46484 1.51562,4.93359 1.51562,7.78125 0,2.84765 -0.5625,5.5 -1.51562,7.97265 -0.94922,2.46485 -2.46875,4.75 -4.55469,6.64063 -1.90234,1.90234 -4.17969,3.42578 -6.83203,4.36719 -2.47266,1.14453 -5.12891,1.52343 -7.97266,1.52343 z m 72.51563,-0.95312 h -9.875 l -2.46484,-16.89453 c 0,-1.14063 -0.19141,-2.65625 -0.37891,-3.98438 -0.19141,-1.51953 -0.19141,-3.03906 -0.38281,-4.75 -0.1875,1.51953 -0.75391,3.60547 -1.51172,6.07813 0,0.57031 -0.19141,0.94922 -0.19141,1.14062 l -5.3164,18.41016 h -7.21094 l -5.32031,-18.41016 c 0,-0.1914 -0.1875,-0.57031 -0.37891,-1.14062 -0.76172,-2.47266 -1.14063,-4.5586 -1.32813,-6.07813 -0.1875,1.51953 -0.38671,2.85157 -0.38671,4.36719 -0.1875,1.51953 -0.3711,2.85156 -0.5625,4.36719 l -2.28125,16.89453 h -9.875 l 5.88671,-39.10156 h 10.63672 l 5.87891,20.12109 c 0,0.19141 0.19141,0.37891 0.19141,0.75391 0.57421,1.71093 0.95312,3.23437 1.14453,4.5664 0,-0.76172 0.1875,-1.52343 0.3789,-2.28515 0.17969,-0.94922 0.38282,-1.89453 0.76172,-3.03516 l 6.07031,-20.12109 h 10.4375 z m -260.277345,0 V 165.92969 H 0 v -9.11328 h 28.09375 v 9.11328 h -8.730469 v 29.98828 z M 196.49609,155.86328 v 9.10938 c -3.03515,0 -5.32031,0.95703 -7.41015,3.23047 -1.89453,2.08593 -2.84766,4.9375 -2.84766,8.16406 0,3.41406 0.95313,6.07031 2.84766,8.35156 1.90234,2.08594 4.375,3.22656 7.41015,3.22656 v 8.92578 c -2.85546,0 -5.50781,-0.3789 -7.98046,-1.52343 -2.65625,-0.94141 -4.9336,-2.46485 -6.83204,-4.36719 -2.08593,-1.89063 -3.60546,-4.17578 -4.55859,-6.64063 -1.13281,-2.47265 -1.51562,-5.125 -1.51562,-7.97265 0,-2.84766 0.38281,-5.31641 1.51562,-7.78125 0.95313,-2.47266 2.47266,-4.7461 4.55859,-6.65235 1.89844,-1.89062 4.17579,-3.41406 6.83204,-4.55468 2.47265,-0.94532 5.125,-1.51563 7.98046,-1.51563 z M 33.414063,195.91797 v -39.10156 h 23.925781 v 8.53515 H 43.859375 v 6.83985 h 12.714844 v 8.35547 H 43.859375 v 6.64062 h 13.480469 v 8.73047 z m 59.425781,-37.58203 v 11.57422 c -1.523438,-1.51563 -2.855469,-2.84766 -4.367188,-3.60157 -1.53125,-0.75781 -3.042968,-1.14062 -4.75,-1.14062 -3.035156,0 -5.507812,1.14062 -7.410156,3.22656 -1.894531,2.08985 -2.84375,4.7461 -2.84375,8.16406 0,3.22266 0.949219,5.69922 2.84375,7.78125 2.09375,2.09375 4.558594,3.22657 7.410156,3.22657 1.707032,0 3.21875,-0.37891 4.75,-1.13282 1.511719,-0.76953 2.84375,-2.09375 4.367188,-3.61328 v 11.58594 c -1.710938,0.94141 -3.425781,1.51172 -5.128906,1.89453 -1.703125,0.37891 -3.226563,0.57031 -4.9375,0.57031 -2.28125,0 -4.175782,-0.1914 -6.078125,-0.76171 -1.707032,-0.37891 -3.417969,-1.32422 -4.9375,-2.27344 -2.839844,-1.90235 -5.121094,-4.36719 -6.640625,-7.40235 -1.515625,-3.04296 -2.277344,-6.26953 -2.277344,-10.0664 0,-3.04297 0.382812,-5.69531 1.332031,-8.16406 0.945313,-2.47266 2.464844,-4.7461 4.550781,-6.64844 1.710938,-1.89453 3.796875,-3.41406 6.265625,-4.35938 2.277344,-0.94922 4.742188,-1.33203 7.785157,-1.33203 1.710937,0 3.234375,0.19141 4.9375,0.57031 1.703125,0.38282 3.417968,0.94532 5.128906,1.90235 z m 6.070312,37.58203 V 156.81641 H 109.54687 V 172 h 14.23438 v -15.18359 h 10.625 v 39.10156 h -10.625 v -15.94531 h -14.23438 v 15.94531 z m 72.332034,-37.58203 v 11.57422 c -1.51953,-1.51563 -3.03906,-2.84766 -4.36328,-3.60157 -1.52344,-0.75781 -3.04297,-1.14062 -4.75782,-1.14062 -3.02734,0 -5.5,1.14062 -7.39453,3.22656 -1.90234,2.08985 -2.85156,4.7461 -2.85156,8.16406 0,3.22266 0.94922,5.69922 2.85156,7.78125 1.89453,2.09375 4.36719,3.22657 7.39453,3.22657 1.71485,0 3.23438,-0.37891 4.75782,-1.13282 1.32422,-0.76953 2.84375,-2.09375 4.36328,-3.61328 v 11.58594 c -1.71094,0.94141 -3.42188,1.51172 -5.125,1.89453 -1.71094,0.37891 -3.41797,0.57031 -5.12891,0.57031 -2.08594,0 -3.98437,-0.1914 -5.8789,-0.76171 -1.71485,-0.37891 -3.42579,-1.32422 -4.9375,-2.27344 -3.04297,-1.90235 -5.12891,-4.36719 -6.83985,-7.40235 -1.51562,-3.04296 -2.27344,-6.26953 -2.27344,-10.0664 0,-3.04297 0.57032,-5.69531 1.51172,-8.16406 0.94922,-2.47266 2.47266,-4.7461 4.36719,-6.64844 1.90234,-1.89453 3.98438,-3.41406 6.26953,-4.35938 2.47266,-0.94922 4.9375,-1.33203 7.78125,-1.33203 1.71094,0 3.41797,0.19141 5.12891,0.57031 1.70312,0.38282 3.41406,0.94532 5.125,1.90235" fill="#eb1e26" fill-opacity="1" fill-rule="evenodd" stroke="none"/></g><g clip-path="url(#b)" transform="translate(0,-116.69889)" clip-rule="nonzero"><path d="m 327.48438,188.89844 v -7.59375 h 5.32031 l -3.98828,-12.91016 c -0.1875,-0.3789 -0.37891,-0.94922 -0.57813,-1.90234 -0.18359,-0.76172 -0.5625,-1.89453 -0.7539,-3.22656 v -6.44922 h 6.64843 l 13.48438,39.10156 h -10.63672 l -2.08203,-7.01953 z m 23.92187,7.01953 v -39.10156 h 10.25391 l 14.80468,20.12109 c 0.19141,0.37891 0.76172,1.32422 1.33204,2.46484 0.75781,1.33204 1.51171,2.65625 2.27343,4.36719 -0.18359,-1.51172 -0.37109,-3.03515 -0.5625,-4.17578 0,-1.33203 -0.19922,-2.46484 -0.19922,-3.41797 v -19.35937 h 10.25782 v 39.10156 h -10.25782 l -14.80078,-20.12109 c -0.1914,-0.37891 -0.75781,-1.33204 -1.33203,-2.47266 -0.76562,-1.32422 -1.32812,-2.83984 -2.08594,-4.35938 0.19141,1.51954 0.37891,3.03516 0.37891,4.35938 0.19141,1.14062 0.19141,2.28125 0.19141,3.23437 v 19.35938 z m 46.70313,0 v -39.10156 h 10.44531 v 17.83984 l 12.52344,-17.83984 h 12.33593 l -14.42187,19.17187 15.7539,19.92969 h -13.28125 l -12.91015,-17.45703 v 17.45703 z M 288.94922,172.37891 c 1.32422,-0.1875 2.46875,-0.37891 3.03906,-0.75782 0.94141,-0.57031 1.51563,-1.71093 1.51563,-3.03515 0,-1.52344 -0.38282,-2.47266 -1.33203,-3.23438 -0.75391,-0.3789 -1.70313,-0.5625 -3.22266,-0.7539 v -7.78125 c 2.46875,0 4.36328,0.17968 5.69141,0.3789 1.71484,0.375 3.22656,0.75391 4.55859,1.51563 1.32422,0.76172 2.46484,1.89844 3.22656,3.22265 0.76172,1.33204 1.14063,2.85547 1.14063,4.5586 0,2.28125 -0.57032,4.17969 -1.71094,5.3164 -1.13281,1.33204 -3.03516,2.47266 -5.5,3.03516 2.84375,0.19531 5.125,1.14453 6.64062,3.03906 1.52344,1.71094 2.27344,3.98438 2.27344,6.83594 0,2.08594 -0.37109,3.98828 -1.32812,5.51172 -0.75391,1.70312 -2.08594,2.84375 -3.79297,3.79297 -1.32813,0.76172 -2.84375,1.13672 -4.9336,1.52344 -1.32421,0.18359 -3.41796,0.37109 -6.26562,0.37109 v -7.97266 c 2.08594,0 3.60937,-0.3789 4.55469,-0.94922 1.13672,-0.5625 1.71093,-1.70312 1.71093,-3.22656 0,-1.51172 -0.57421,-2.65625 -1.52343,-3.41406 -0.94922,-0.57422 -2.46485,-0.95313 -4.74219,-0.95313 z m 38.53516,-15.5625 v 6.44922 c 0,-0.1875 0,-0.1875 0,-0.1875 -0.37891,0.94921 -0.57032,1.89453 -0.75782,2.85156 -0.18359,0.7539 -0.38281,1.70312 -0.7539,2.46484 l -3.80469,12.91016 h 5.31641 v 7.59375 h -7.58985 l -2.09375,7.01953 h -10.6289 l 13.47656,-39.10156 z m -42.90625,15.5625 h 2.28125 c 0.76171,0 1.33203,0 2.08984,0 v 7.02343 c -0.19531,0 -0.38672,0 -0.56641,0 h -3.80468 v 8.54297 h 3.61328 c 0.1914,0 0.5625,0 0.75781,0 v 7.97266 c -0.95703,0 -1.90625,0 -3.23047,0 h -11.00781 v -39.10156 h 10.8164 c 1.33204,0 2.27735,0 3.42188,0 v 7.78125 c -0.56641,0 -1.32813,0 -2.08984,0 h -2.28125 v 7.78125" fill="#211e1e" fill-opacity="1" fill-rule="evenodd" stroke="none"/></g></svg>